<svg xmlns="http://www.w3.org/2000/svg" width="315" height="400" viewBox="0 0 315 400" version="1.1">
	<path d="M 251.495 23.005 C 238.857 35.652, 228.278 46, 227.987 46 C 227.695 46, 224.443 43.803, 220.760 41.117 C 206.987 31.077, 187.755 22.950, 169.339 19.389 C 158.259 17.246, 136.518 17.004, 125 18.896 C 106.702 21.900, 84.306 31.309, 69.462 42.227 C 60.097 49.115, 45.696 63.908, 39.185 73.326 C 29.503 87.332, 21.726 105.773, 18.275 122.906 C 15.875 134.822, 15.903 160.397, 18.328 171.836 C 22.336 190.741, 29.565 207.608, 39.730 221.776 L 45.047 229.187 23.024 251.655 C 10.911 264.013, 1 274.565, 1 275.105 C 1 275.645, 4.802 280.004, 9.449 284.793 L 17.897 293.500 27.199 284.318 L 36.500 275.136 40 278.146 C 46.836 284.026, 63.406 294.332, 74.373 299.524 C 93.180 308.429, 110.587 313.042, 133.250 315.127 L 146 316.300 146 344.650 L 146 373 124 373 L 102 373 102 386 L 102 399 159 399 L 216 399 216 386 L 216 373 193.985 373 L 171.970 373 172.235 343.355 L 172.500 313.709 181.613 311.869 C 201.730 307.805, 225.857 297.342, 243 285.247 C 257.127 275.279, 277.022 255.001, 285.920 241.500 C 301.705 217.552, 310.306 194.343, 313.528 167.006 C 315.811 147.630, 315.217 132.795, 311.387 113.500 C 306.554 89.159, 293.474 61.168, 278.208 42.500 L 274.120 37.500 283.561 27.981 L 293.002 18.462 283.737 9.236 L 274.473 0.011 251.495 23.005 M 133 44.109 C 117.189 45.901, 97.834 53.757, 84.385 63.840 C 33.974 101.636, 28.048 174.280, 71.681 219.579 C 92.637 241.335, 119.313 251.883, 150.500 250.744 C 166.139 250.173, 176.550 247.722, 189.698 241.517 C 206.166 233.745, 218.895 223.600, 229.240 210 C 235.440 201.850, 243.085 186.249, 246.639 174.500 C 249.137 166.238, 249.366 164.066, 249.428 148 C 249.487 132.918, 249.191 129.386, 247.289 122.434 C 235.424 79.074, 200.904 48.890, 157.666 44.069 C 146.971 42.876, 143.835 42.882, 133 44.109 M 251.168 60.329 L 246.878 64.700 252.917 73.100 C 278.610 108.834, 283.907 156.212, 266.873 197.940 C 253.615 230.418, 225.261 257.736, 192.133 269.951 C 150.836 285.178, 103.080 278.060, 68.285 251.492 L 63.636 247.941 59.270 252.221 L 54.904 256.500 57.702 258.791 C 74.209 272.308, 98.244 283.235, 121 287.568 C 133.984 290.040, 159.051 290.044, 171.500 287.576 C 200.828 281.762, 226.506 268.160, 246.937 247.616 C 284.979 209.365, 298.182 153.902, 281.329 103.139 C 276.006 87.102, 267.184 70.634, 257.274 58.228 L 255.459 55.957 251.168 60.329" stroke="none" fill="black" fill-rule="evenodd"/>
</svg>